# xmcd
#
# Track frame offsets:
#	150
#	14088
#	30278
#	44325
#	59567
#	75275
#	91655
#	109525
#	126848
#	148936
#	169792
#	187052
#	201053
#	215688
#	234913
#	252508
#	273581
#	291059
#
# Disc length: 4095 seconds
#
# Revision: 0
# Processed by: cddbd v1.5.2PL0 Copyright (c) Steve Scherf et al.
# Submitted via: EZCDAudioConverter 1.1.0.1
#
DISCID=030ffd12
DTITLE=Dan Seals - The Very Best Of Dan Seals
DYEAR=1900
DGENRE=Country
TTITLE0=Everybody's Dream Girl
TTITLE1=After You
TTITLE2=God Must Be A Cowboy
TTITLE3=(You Bring Out) The Wild Side Of Me
TTITLE4=My Baby's Got Good Timing
TTITLE5=My Old Yellow Car
TTITLE6=Meet Me In Montana
TTITLE7=Bop
TTITLE8=Everything That Glitters (Is Not Gold)
TTITLE9=You Still Move Me
TTITLE10=I Will Be There
TTITLE11=Three Time Loser
TTITLE12=One Friend
TTITLE13=Addicted
TTITLE14=Big Wheels In The Moonlight
TTITLE15=They Rage On
TTITLE16=Love On Arrival
TTITLE17=Good Times
EXTD=
EXTT0=
EXTT1=
EXTT2=
EXTT3=
EXTT4=
EXTT5=
EXTT6=
EXTT7=
EXTT8=
EXTT9=
EXTT10=
EXTT11=
EXTT12=
EXTT13=
EXTT14=
EXTT15=
EXTT16=
EXTT17=
PLAYORDER=
